<?xml version="1.0" encoding="UTF-8"?>
<svg xmlns="http://www.w3.org/2000/svg" width="906" height="222" viewBox="0 0 906 222" fill="none">
  <path fill-rule="evenodd" clip-rule="evenodd" d="M63.0138 203.733H95.3355C98.2095 203.733 100.201 202.668 101.722 200.244L127.898 156.999H139.106L133.251 215.964H0V205.71L12.0335 190.92C14.0662 188.422 15.0951 185.367 15.0951 182.158V33.5564C15.0951 30.6225 14.1104 27.3664 12.1299 25.1558L12.07 25.0898L0 9.93567V-2.51193e-05H78.1088V9.9305L66.0805 25.0967L66.0093 25.1758C64.001 27.3742 63.0138 30.6156 63.0138 33.5564V203.733ZM185.843 126.691C187.925 134.621 190.47 142.475 193.382 150.117C196.855 159.219 200.936 168.252 205.843 176.672C211.953 187.157 223.621 203.834 237.338 203.834C253.034 203.834 258.916 190.516 258.916 176.709C258.916 170.285 257.681 163.377 256.11 157.169L255.143 153.351H293.3L292.579 157.009C289.121 174.589 280.674 190.706 266.851 202.318C253.636 213.419 237.166 218.961 219.944 218.961C199.989 218.961 181.243 211.326 167.465 196.854C152.362 180.989 145.751 159.738 145.751 138.121C145.751 116.851 151.277 95.1913 165.917 79.1715C180.04 63.7196 199.526 56.9826 220.195 56.9826C237.941 56.9826 254.754 63.2169 268.003 75.0637C282.003 87.5765 290.295 104.739 293.199 123.149L293.76 126.691H185.843ZM461.776 204.474L470.284 194.019C472.244 191.61 473.344 188.617 473.344 185.506V45.9025C473.344 42.8722 472.441 39.5493 470.378 37.251L470.319 37.184L458.249 22.0299V12.6186L508.914 3.09797H518.363V144.292L559.697 94.9968L559.712 94.9803C560.857 93.6562 564.52 89.2601 564.952 87.4558L556.067 72.9052V62.88H612.384V73.9089L585.526 87.7883C581.135 90.249 575.608 94.9134 572.556 98.8615L572.518 98.9084L549.496 126.39L572.344 134.708L585.546 176.179C588.3 184.828 592.644 196.541 599.164 203.133C603.277 207.29 607.678 208.882 613.415 208.882C615.881 208.882 619.216 208.58 621.38 207.272L626.029 204.47V218.103L624.062 218.858C617.554 221.359 608.712 221.962 601.771 221.962C569.375 221.962 548.681 208.981 538.769 178.045L529.764 149.93L518.363 163.436V185.506C518.363 188.531 519.261 192.5 521.329 194.807L521.344 194.824L533.458 208.752V219.062H458.249L442.522 218.961C410.126 218.961 389.432 205.98 379.523 175.045L370.515 146.93L359.117 160.435V182.507C359.117 185.532 360.015 189.502 362.083 191.808L362.097 191.826L374.212 205.752V216.062H299.003V205.811L311.036 191.018C312.995 188.611 314.098 185.616 314.098 182.507V42.9017C314.098 39.8722 313.191 36.5493 311.132 34.2527L311.073 34.1867L299.003 19.0326V9.62047L349.668 0.100667H359.117V141.291L400.451 91.9995L400.466 91.9821C401.61 90.658 405.27 86.2619 405.703 84.4559L396.821 69.9069V59.88H453.135V70.9115L426.28 84.7902C421.886 87.2491 416.358 91.9136 413.306 95.8608L413.27 95.9077L390.249 123.393L413.097 131.707L426.3 173.179C429.051 181.828 433.395 193.544 439.918 200.135C444.028 204.29 448.431 205.885 454.168 205.885C456.501 205.885 459.617 205.611 461.776 204.474ZM660.289 129.692C662.37 137.619 664.915 145.475 667.829 153.115C671.299 162.217 675.38 171.252 680.288 179.67C686.397 190.154 698.067 206.832 711.784 206.832C727.48 206.832 733.36 193.517 733.36 179.709C733.36 173.285 732.127 166.374 730.554 160.166L729.589 156.35H767.743L767.025 160.007C763.564 177.588 755.12 193.706 741.295 205.316C728.08 216.419 711.61 221.962 694.388 221.962C674.435 221.962 655.687 214.327 641.911 199.855C626.807 183.99 620.198 162.738 620.198 141.122C620.198 119.849 625.721 98.1921 640.363 82.1715C654.484 66.7169 673.969 59.9808 694.639 59.9808C712.385 59.9808 729.198 66.2176 742.45 78.061C756.446 90.5746 764.738 107.737 767.645 126.147L768.204 129.692H660.289ZM835.66 120.836V185.506C835.66 188.531 836.558 192.5 838.626 194.807L838.64 194.824L850.755 208.752V219.062H775.546V208.814L787.545 194.002L787.562 193.98C789.553 191.612 790.641 188.597 790.641 185.506V105.981C790.641 102.807 789.821 99.735 787.645 97.3525L787.572 97.2734L775.546 82.1072V72.4006L826.211 62.88H835.66V87.2934L835.855 86.8306C842.583 69.8722 855.766 59.9808 874.08 59.9808C892.164 59.9808 904.462 70.823 905.877 89.2037L905.978 90.5173L875.739 123.892H865.03L865.223 120.648C865.521 115.553 867.63 82.9564 858.436 82.9564C852.084 82.9564 846.959 93.4686 845.025 98.1547L835.66 120.836ZM183.175 114.464H242.199C237.661 104.404 231.96 94.0938 225.005 85.7895C219.644 79.3903 211.704 72.1098 202.802 72.1098C187.241 72.1098 181.175 85.529 181.175 99.2357C181.175 104.19 182.043 109.523 183.175 114.464ZM657.619 117.461H716.645C712.104 107.405 706.404 97.092 699.449 88.7878C694.088 82.3885 686.148 75.108 677.245 75.108C661.686 75.108 655.618 88.5264 655.618 102.233C655.618 107.19 656.49 112.524 657.619 117.461Z" fill="white"></path>
</svg>
